<svg width="31" height="38" viewBox="0 0 31 38" fill="none" xmlns="http://www.w3.org/2000/svg">
<path d="M15.9009 37.25C17.9634 37.25 19.6509 35.5625 19.6509 33.5H12.1509C12.1509 35.5625 13.8384 37.25 15.9009 37.25ZM27.1509 26V16.625C27.1509 10.8688 24.0946 6.05 18.7134 4.775V3.5C18.7134 1.94375 17.4571 0.6875 15.9009 0.6875C14.3446 0.6875 13.0884 1.94375 13.0884 3.5V4.775C7.72588 6.05 4.65088 10.85 4.65088 16.625L4.65088 26L0.900879 29.75V31.625H30.9009V29.75L27.1509 26ZM23.4009 27.875H8.40088L8.40088 16.625C8.40088 11.975 11.2321 8.1875 15.9009 8.1875C20.5696 8.1875 23.4009 11.975 23.4009 16.625V27.875Z" fill="black" fill-opacity="0.25"/>
<circle cx="23.4009" cy="11" r="5" fill="#FF6464"/>
</svg>
