<svg width="40" height="40" viewBox="0 0 40 40" fill="none" xmlns="http://www.w3.org/2000/svg">
<path fill-rule="evenodd" clip-rule="evenodd" d="M20.365 28.3852C20.2486 28.2691 20.1563 28.1312 20.0932 27.9793C20.0302 27.8274 19.9978 27.6646 19.9978 27.5002C19.9978 27.3358 20.0302 27.173 20.0932 27.0211C20.1563 26.8693 20.2486 26.7313 20.365 26.6152L26.9825 20.0002L20.365 13.3852C20.2488 13.269 20.1566 13.131 20.0937 12.9792C20.0308 12.8273 19.9984 12.6646 19.9984 12.5002C19.9984 12.3358 20.0308 12.1731 20.0937 12.0212C20.1566 11.8694 20.2488 11.7314 20.365 11.6152C20.4812 11.499 20.6192 11.4068 20.7711 11.3439C20.9229 11.281 21.0857 11.2486 21.25 11.2486C21.4144 11.2486 21.5771 11.281 21.729 11.3439C21.8808 11.4068 22.0188 11.499 22.135 11.6152L29.635 19.1152C29.7514 19.2313 29.8438 19.3693 29.9068 19.5211C29.9698 19.673 30.0023 19.8358 30.0023 20.0002C30.0023 20.1646 29.9698 20.3274 29.9068 20.4793C29.8438 20.6312 29.7514 20.7691 29.635 20.8852L22.135 28.3852C22.0189 28.5016 21.881 28.594 21.7291 28.657C21.5772 28.72 21.4144 28.7524 21.25 28.7524C21.0856 28.7524 20.9228 28.72 20.7709 28.657C20.6191 28.594 20.4811 28.5016 20.365 28.3852Z" fill="black"/>
<path fill-rule="evenodd" clip-rule="evenodd" d="M28.75 20C28.75 20.3315 28.6183 20.6495 28.3839 20.8839C28.1495 21.1183 27.8315 21.25 27.5 21.25L11.25 21.25C10.9185 21.25 10.6005 21.1183 10.3661 20.8839C10.1317 20.6495 10 20.3315 10 20C10 19.6685 10.1317 19.3505 10.3661 19.1161C10.6005 18.8817 10.9185 18.75 11.25 18.75L27.5 18.75C27.8315 18.75 28.1495 18.8817 28.3839 19.1161C28.6183 19.3505 28.75 19.6685 28.75 20Z" fill="black"/>
</svg>
