<svg width="258" height="58" viewBox="0 0 258 58" fill="none" xmlns="http://www.w3.org/2000/svg">
<g filter="url(#filter0_d)">
<path d="M4.75 25C4.75 11.6071 15.6071 0.75 29 0.75H229C242.393 0.75 253.25 11.6071 253.25 25C253.25 38.3929 242.393 49.25 229 49.25H29C15.6071 49.25 4.75 38.3929 4.75 25Z" stroke="white" stroke-width="1.5"/>
</g>
<path d="M108.339 25.4531H110.875C110.825 22.9957 108.73 21.2557 105.634 21.2557C102.58 21.2557 100.286 22.9744 100.293 25.5455C100.293 27.6335 101.777 28.8338 104.17 29.4517L105.825 29.8778C107.395 30.2756 108.432 30.7656 108.439 31.8949C108.432 33.1378 107.253 33.9688 105.534 33.9688C103.886 33.9688 102.608 33.2301 102.501 31.7031H99.9091C100.016 34.5938 102.168 36.2202 105.555 36.2202C109.043 36.2202 111.067 34.4801 111.074 31.9162C111.067 29.3949 108.986 28.2443 106.798 27.7259L105.435 27.3849C104.241 27.1009 102.949 26.5966 102.963 25.3821C102.97 24.2884 103.95 23.4858 105.598 23.4858C107.168 23.4858 108.205 24.2173 108.339 25.4531ZM113.009 36H115.58V25.0909H113.009V36ZM114.302 23.5426C115.119 23.5426 115.786 22.9176 115.786 22.1506C115.786 21.3764 115.119 20.7514 114.302 20.7514C113.478 20.7514 112.81 21.3764 112.81 22.1506C112.81 22.9176 113.478 23.5426 114.302 23.5426ZM122.668 40.3182C125.616 40.3182 127.789 38.9688 127.789 36.1776V25.0909H125.254V26.8949H125.112C124.721 26.1065 123.904 24.9489 121.98 24.9489C119.458 24.9489 117.477 26.9233 117.477 30.5099C117.477 34.0682 119.458 35.8438 121.972 35.8438C123.84 35.8438 124.714 34.8423 125.112 34.0398H125.239V36.1065C125.239 37.7116 124.174 38.3722 122.711 38.3722C121.163 38.3722 120.481 37.6406 120.168 37.0014L117.853 37.5625C118.322 39.0895 119.891 40.3182 122.668 40.3182ZM122.69 33.8267C120.992 33.8267 120.097 32.5057 120.097 30.4957C120.097 28.5142 120.978 27.0582 122.69 27.0582C124.345 27.0582 125.254 28.429 125.254 30.4957C125.254 32.5767 124.33 33.8267 122.69 33.8267ZM132.695 29.608C132.695 28.0312 133.647 27.1222 135.003 27.1222C136.332 27.1222 137.127 27.9957 137.127 29.4517V36H139.698V29.054C139.705 26.4403 138.214 24.9489 135.962 24.9489C134.329 24.9489 133.207 25.7301 132.709 26.9446H132.582V25.0909H130.124V36H132.695V29.608ZM155.955 21.4545V30.7372C155.955 32.5625 154.684 33.8693 152.688 33.8693C150.685 33.8693 149.421 32.5625 149.421 30.7372V21.4545H146.786V30.9574C146.786 34.0824 149.13 36.2202 152.688 36.2202C156.232 36.2202 158.59 34.0824 158.59 30.9574V21.4545H155.955ZM161.041 40.0909H163.612V34.2812H163.718C164.123 35.0767 164.968 36.1918 166.843 36.1918C169.414 36.1918 171.339 34.1534 171.339 30.5597C171.339 26.9233 169.357 24.9489 166.836 24.9489C164.911 24.9489 164.109 26.1065 163.718 26.8949H163.569V25.0909H161.041V40.0909ZM163.562 30.5455C163.562 28.429 164.471 27.0582 166.126 27.0582C167.837 27.0582 168.718 28.5142 168.718 30.5455C168.718 32.5909 167.823 34.0824 166.126 34.0824C164.485 34.0824 163.562 32.6619 163.562 30.5455Z" fill="black"/>
<defs>
<filter id="filter0_d" x="0" y="0" width="258" height="58" filterUnits="userSpaceOnUse" color-interpolation-filters="sRGB">
<feFlood flood-opacity="0" result="BackgroundImageFix"/>
<feColorMatrix in="SourceAlpha" type="matrix" values="0 0 0 0 0 0 0 0 0 0 0 0 0 0 0 0 0 0 127 0"/>
<feOffset dy="4"/>
<feGaussianBlur stdDeviation="2"/>
<feColorMatrix type="matrix" values="0 0 0 0 0 0 0 0 0 0 0 0 0 0 0 0 0 0 0.25 0"/>
<feBlend mode="normal" in2="BackgroundImageFix" result="effect1_dropShadow"/>
<feBlend mode="normal" in="SourceGraphic" in2="effect1_dropShadow" result="shape"/>
</filter>
</defs>
</svg>
