<svg width="45" height="45" viewBox="0 0 45 45" fill="none" xmlns="http://www.w3.org/2000/svg">
<path d="M5.62497 24.3749H7.49997V37.4999C7.49997 39.568 9.18184 41.2499 11.25 41.2499H33.75C35.8181 41.2499 37.5 39.568 37.5 37.4999V24.3749H39.375C39.7458 24.3748 40.1082 24.2648 40.4165 24.0588C40.7247 23.8527 40.965 23.5599 41.1069 23.2174C41.2487 22.8748 41.2859 22.4979 41.2136 22.1342C41.1413 21.7705 40.9627 21.4365 40.7006 21.1743L23.8256 4.29926C23.6516 4.12499 23.445 3.98673 23.2175 3.8924C22.9901 3.79807 22.7462 3.74951 22.5 3.74951C22.2537 3.74951 22.0099 3.79807 21.7824 3.8924C21.555 3.98673 21.3483 4.12499 21.1743 4.29926L4.29934 21.1743C4.0372 21.4365 3.85869 21.7705 3.78637 22.1342C3.71406 22.4979 3.75119 22.8748 3.89307 23.2174C4.03495 23.5599 4.27521 23.8527 4.58348 24.0588C4.89175 24.2648 5.25419 24.3748 5.62497 24.3749ZM18.75 37.4999V28.1249H26.25V37.4999H18.75ZM22.5 8.27614L33.75 19.5261V28.1249L33.7518 37.4999H30V28.1249C30 26.0568 28.3181 24.3749 26.25 24.3749H18.75C16.6818 24.3749 15 26.0568 15 28.1249V37.4999H11.25V19.5261L22.5 8.27614Z" fill="black" fill-opacity="0.25"/>
</svg>
