<svg width="45" height="45" viewBox="0 0 45 45" fill="none" xmlns="http://www.w3.org/2000/svg">
<path d="M24.2625 41.25H20.7188C19.8833 41.25 19.0821 40.9181 18.4914 40.3274C17.9006 39.7366 17.5687 38.9354 17.5687 38.1V36.0562C17.5586 35.9358 17.5144 35.8208 17.4414 35.7245C17.3684 35.6283 17.2695 35.5547 17.1562 35.5125C17.0415 35.439 16.9081 35.3999 16.7719 35.3999C16.6356 35.3999 16.5022 35.439 16.3875 35.5125L15 37.0125C14.709 37.3056 14.3628 37.5382 13.9815 37.6969C13.6001 37.8557 13.1912 37.9374 12.7781 37.9374C12.3651 37.9374 11.9561 37.8557 11.5748 37.6969C11.1934 37.5382 10.8473 37.3056 10.5562 37.0125L7.9875 34.5C7.69016 34.2095 7.45402 33.8624 7.293 33.4792C7.13198 33.096 7.04936 32.6844 7.05 32.2687C7.0512 31.4185 7.38814 30.6031 7.9875 30L9.375 28.6125C9.44199 28.5092 9.47763 28.3887 9.47763 28.2656C9.47763 28.1425 9.44199 28.022 9.375 27.9187C9.2625 27.6375 9.075 27.4312 8.8125 27.4312H6.9C6.06285 27.4263 5.26167 27.0903 4.67147 26.4965C4.08126 25.9028 3.74999 25.0997 3.75 24.2625V20.7188C3.75 19.8833 4.08187 19.0821 4.67261 18.4914C5.26335 17.9006 6.06457 17.5687 6.9 17.5687H8.94375C9.06416 17.5586 9.17921 17.5144 9.27548 17.4414C9.37175 17.3684 9.44528 17.2695 9.4875 17.1562C9.561 17.0415 9.60007 16.9081 9.60007 16.7719C9.60007 16.6356 9.561 16.5022 9.4875 16.3875L7.9875 15C7.69441 14.709 7.4618 14.3628 7.30306 13.9815C7.14433 13.6001 7.0626 13.1912 7.0626 12.7781C7.0626 12.3651 7.14433 11.9561 7.30306 11.5748C7.4618 11.1934 7.69441 10.8473 7.9875 10.5562L10.5 7.9875C10.7876 7.69157 11.1315 7.45617 11.5115 7.29517C11.8915 7.13416 12.2998 7.0508 12.7125 7.05C13.1367 7.04814 13.5571 7.12999 13.9496 7.29086C14.3422 7.45173 14.6991 7.68847 15 7.9875L16.3875 9.375C16.4908 9.44199 16.6113 9.47763 16.7344 9.47763C16.8575 9.47763 16.978 9.44199 17.0812 9.375C17.3625 9.2625 17.5687 9.075 17.5687 8.8125V6.9C17.5737 6.06285 17.9097 5.26167 18.5035 4.67147C19.0972 4.08126 19.9003 3.74999 20.7375 3.75H24.375C25.2104 3.75 26.0116 4.08187 26.6024 4.67261C27.1931 5.26335 27.525 6.06457 27.525 6.9V8.94375C27.5352 9.06416 27.5793 9.17921 27.6524 9.27548C27.7254 9.37175 27.8243 9.44528 27.9375 9.4875C28.0522 9.561 28.1856 9.60007 28.3219 9.60007C28.4581 9.60007 28.5915 9.561 28.7062 9.4875L30 7.9875C30.291 7.69441 30.6372 7.4618 31.0185 7.30306C31.3999 7.14433 31.8088 7.0626 32.2219 7.0626C32.6349 7.0626 33.0439 7.14433 33.4252 7.30306C33.8065 7.4618 34.1527 7.69441 34.4438 7.9875L37.0125 10.5C37.309 10.7911 37.5446 11.1383 37.7055 11.5214C37.8665 11.9045 37.9496 12.3157 37.95 12.7312C37.959 13.1537 37.8804 13.5734 37.719 13.9639C37.5577 14.3544 37.3171 14.7072 37.0125 15L35.625 16.3875C35.558 16.4908 35.5224 16.6113 35.5224 16.7344C35.5224 16.8575 35.558 16.978 35.625 17.0812C35.7375 17.3625 35.925 17.5687 36.1875 17.5687H38.2312C39.0454 17.6073 39.8134 17.9581 40.3755 18.5483C40.9377 19.1384 41.2509 19.9224 41.25 20.7375V24.375C41.25 25.2104 40.9181 26.0116 40.3274 26.6024C39.7366 27.1931 38.9354 27.525 38.1 27.525H36.0562C35.9358 27.5352 35.8208 27.5793 35.7245 27.6524C35.6283 27.7254 35.5547 27.8243 35.5125 27.9375C35.4455 28.0408 35.4099 28.1613 35.4099 28.2844C35.4099 28.4075 35.4455 28.528 35.5125 28.6312L36.9562 30.075C37.2493 30.366 37.482 30.7122 37.6407 31.0935C37.7994 31.4749 37.8811 31.8838 37.8811 32.2969C37.8811 32.7099 37.7994 33.1189 37.6407 33.5002C37.482 33.8815 37.2493 34.2277 36.9562 34.5187L34.5 37.0125C34.2124 37.3084 33.8685 37.5438 33.4885 37.7048C33.1085 37.8658 32.7002 37.9492 32.2875 37.95C31.4502 37.939 30.6501 37.6028 30.0562 37.0125L28.6125 35.625C28.5092 35.558 28.3887 35.5224 28.2656 35.5224C28.1425 35.5224 28.022 35.558 27.9187 35.625C27.6375 35.7375 27.4312 35.925 27.4312 36.1875V38.2312C27.3927 39.0454 27.0419 39.8134 26.4517 40.3755C25.8616 40.9377 25.0775 41.2509 24.2625 41.25ZM21.3187 37.5H23.6812V36.0562C23.6892 35.1916 23.9536 34.3488 24.4409 33.6345C24.9283 32.9202 25.6166 32.3666 26.4187 32.0437C27.2242 31.6917 28.1162 31.5875 28.9811 31.7444C29.8461 31.9014 30.6446 32.3124 31.275 32.925L32.2875 33.9375L33.9375 32.2875L32.925 31.2562C32.3162 30.6354 31.9057 29.8477 31.7454 28.993C31.5852 28.1384 31.6825 27.2555 32.025 26.4562C32.3507 25.6576 32.9056 24.9732 33.6196 24.4894C34.3337 24.0056 35.175 23.744 36.0375 23.7375H37.5V21.3187H36.0562C35.1916 21.3108 34.3488 21.0464 33.6345 20.5591C32.9202 20.0717 32.3666 19.3834 32.0437 18.5812C31.6917 17.7758 31.5875 16.8838 31.7444 16.0188C31.9014 15.1539 32.3124 14.3554 32.925 13.725L33.9375 12.7125L32.2875 11.0625L31.2562 12.075C30.6257 12.6509 29.8438 13.0347 29.0025 13.1812C28.1612 13.3276 27.2955 13.2306 26.5075 12.9016C25.7195 12.5726 25.0418 12.0253 24.5544 11.3241C24.067 10.6229 23.7901 9.79704 23.7562 8.94375V7.5H21.3187V8.94375C21.3108 9.8084 21.0464 10.6512 20.5591 11.3655C20.0717 12.0798 19.3834 12.6334 18.5812 12.9562C17.7758 13.3083 16.8838 13.4125 16.0188 13.2556C15.1539 13.0986 14.3554 12.6876 13.725 12.075L12.7125 11.0625L11.0625 12.7125L12.075 13.7437C12.6509 14.3743 13.0347 15.1562 13.1812 15.9975C13.3276 16.8388 13.2306 17.7045 12.9016 18.4925C12.5726 19.2805 12.0253 19.9582 11.3241 20.4456C10.6229 20.933 9.79704 21.2099 8.94375 21.2437H7.5V23.6062H8.94375C9.8084 23.6142 10.6512 23.8786 11.3655 24.3659C12.0798 24.8533 12.6334 25.5416 12.9562 26.3437C13.3083 27.1492 13.4125 28.0412 13.2556 28.9062C13.0986 29.7711 12.6876 30.5696 12.075 31.2L11.0625 32.2125L12.7125 33.8625L13.7437 32.85C14.3743 32.2741 15.1562 31.8903 15.9975 31.7438C16.8388 31.5974 17.7045 31.6944 18.4925 32.0234C19.2805 32.3524 19.9582 32.8997 20.4456 33.6009C20.933 34.3021 21.2099 35.128 21.2437 35.9813L21.3187 37.5Z" fill="black" fill-opacity="0.25"/>
<path d="M22.5 29.0625C21.2021 29.0625 19.9333 28.6776 18.8541 27.9565C17.7749 27.2354 16.9337 26.2105 16.437 25.0114C15.9403 23.8122 15.8104 22.4927 16.0636 21.2197C16.3168 19.9467 16.9418 18.7774 17.8596 17.8596C18.7774 16.9418 19.9467 16.3168 21.2197 16.0636C22.4927 15.8104 23.8122 15.9403 25.0114 16.437C26.2105 16.9337 27.2354 17.7749 27.9565 18.8541C28.6776 19.9333 29.0625 21.2021 29.0625 22.5C29.0625 24.2405 28.3711 25.9097 27.1404 27.1404C25.9097 28.3711 24.2405 29.0625 22.5 29.0625ZM22.5 19.6875C21.9437 19.6875 21.4 19.8525 20.9375 20.1615C20.4749 20.4705 20.1145 20.9098 19.9016 21.4237C19.6887 21.9376 19.633 22.5031 19.7415 23.0487C19.8501 23.5943 20.1179 24.0954 20.5113 24.4887C20.9046 24.8821 21.4057 25.1499 21.9513 25.2585C22.4969 25.367 23.0624 25.3113 23.5763 25.0984C24.0902 24.8855 24.5295 24.5251 24.8385 24.0625C25.1476 23.6 25.3125 23.0563 25.3125 22.5C25.3125 21.7541 25.0162 21.0387 24.4887 20.5113C23.9613 19.9838 23.2459 19.6875 22.5 19.6875Z" fill="black" fill-opacity="0.25"/>
</svg>
