<svg width="65" height="65" viewBox="0 0 65 65" fill="none" xmlns="http://www.w3.org/2000/svg">
<g clip-path="url(#clip0)">
<path d="M32.5 65C50.4493 65 65 50.4493 65 32.5C65 14.5507 50.4493 0 32.5 0C14.5507 0 0 14.5507 0 32.5C0 50.4493 14.5507 65 32.5 65Z" fill="#33495F"/>
<path opacity="0.2" d="M20.1499 12.675C21.8074 12.3825 22.7831 11.4075 23.0749 9.75C23.3674 11.4075 24.3431 12.3825 25.9999 12.675C24.3431 12.9681 23.3674 13.9425 23.0749 15.6C22.7831 13.9425 21.8074 12.9681 20.1499 12.675Z" fill="white"/>
<path opacity="0.1" d="M46.1499 48.425C47.8074 48.1325 48.7831 47.1575 49.0749 45.5C49.3674 47.1575 50.3431 48.1325 51.9999 48.425C50.3431 48.7182 49.3674 49.6925 49.0749 51.35C48.7831 49.6925 47.8074 48.7182 46.1499 48.425ZM7.1499 41.925C8.8074 41.6325 9.78305 40.6575 10.0749 39C10.3674 40.6575 11.3431 41.6325 12.9999 41.925C11.3431 42.2182 10.3674 43.1925 10.0749 44.85C9.78305 43.1925 8.8074 42.2182 7.1499 41.925Z" fill="white"/>
<path d="M65.0001 0.065C64.8987 0.0767 64.924 0.1027 64.9351 0C49.7797 1.93635 41.1847 7.98265 36.3123 14.3227C36.14 14.5474 35.9706 14.7743 35.804 15.0033L35.7988 15.0098C30.5598 22.2274 29.9566 29.7778 29.9001 31.85H29.2501L28.6001 33.8L31.2001 36.4L33.1501 35.75V35.1C34.693 35.0699 36.2301 34.9018 37.743 34.5975L37.7443 34.5989C38.2181 34.4805 38.3501 34.6483 38.3501 37.05V42.9C38.3501 44.0758 38.963 44.5231 39.6143 43.8711C41.1893 42.2929 41.5663 41.9061 45.1393 38.3279C47.8433 35.6194 48.1787 34.0411 47.0614 31.1395C54.5695 26.8899 62.6809 18.1272 65.0001 0.065Z" fill="#E94B35"/>
<path d="M31.2001 36.4L28.6001 33.8L29.2501 31.85H30.5501L33.1501 34.45V35.75L31.2001 36.4ZM33.8001 18.2C32.6834 17.7515 32.5001 17.55 31.2001 17.55C29.9001 17.55 28.4812 18.447 26.7405 20.191C23.9754 22.9593 23.588 23.3363 21.2051 25.7212C20.4264 26.5012 21.6211 26.65 23.4001 26.65C26.8016 26.65 29.4432 26.5688 30.4143 27.573C31.6967 28.899 33.8001 18.2 33.8001 18.2ZM65.0001 0C64.5848 3.23245 63.9822 6.22635 63.2315 8.8907C62.5496 7.6102 61.5662 6.0541 60.3065 4.8139C58.9083 3.4359 57.1787 2.4531 55.8696 1.83365C59.7865 0.70915 62.9091 0.2678 65.0001 0Z" fill="#C23824"/>
<path opacity="0.3" d="M47.0614 31.1395C48.1788 34.0405 47.9142 35.5518 45.2063 38.2596C44.6577 38.8083 40.1181 43.368 39.6137 43.8711C38.9618 44.5224 38.3716 44.0758 38.3501 42.9V42.4762C40.3001 40.5262 44.648 36.6665 45.5001 35.1C45.9993 34.1828 45.7289 32.7249 45.5001 31.85C43.3473 32.994 38.0147 34.5111 37.7443 34.5989C35.689 35.0187 34.1037 35.063 33.1501 35.1V34.6736C33.1501 34.6736 52.6339 28.3926 65.0001 0C62.664 18.2306 54.5696 26.8899 47.0614 31.1395Z" fill="white"/>
<path d="M50.3751 18.2C48.0455 18.2 46.1501 16.3046 46.1501 13.975C46.1501 11.6454 48.0455 9.75 50.3751 9.75C52.7047 9.75 54.6001 11.6454 54.6001 13.975C54.6001 16.3046 52.7047 18.2 50.3751 18.2Z" fill="white"/>
<path d="M50.375 10.4001C51.3231 10.4001 52.2325 10.7767 52.9029 11.4472C53.5733 12.1176 53.95 13.0269 53.95 13.9751C53.95 14.9232 53.5733 15.8326 52.9029 16.503C52.2325 17.1734 51.3231 17.5501 50.375 17.5501C49.4269 17.5501 48.5175 17.1734 47.8471 16.503C47.1767 15.8326 46.8 14.9232 46.8 13.9751C46.8 13.0269 47.1767 12.1176 47.8471 11.4472C48.5175 10.7767 49.4269 10.4001 50.375 10.4001ZM50.375 9.1001C47.6859 9.1001 45.5 11.2867 45.5 13.9751C45.5 16.6635 47.6859 18.8501 50.375 18.8501C53.064 18.8501 55.25 16.6635 55.25 13.9751C55.25 11.2867 53.064 9.1001 50.375 9.1001Z" fill="#C23824"/>
<path d="M28.6 33.8L31.2 36.4L8.45005 59.8L4.55005 55.9L28.6 33.8Z" fill="#D7DCDE"/>
<path d="M28.5188 33.8L29.8188 35.1L4.87505 59.4751L2.92505 57.5251L28.5188 33.8Z" fill="#F7F7F7"/>
</g>
<defs>
<clipPath id="clip0">
<rect width="65" height="65" fill="white"/>
</clipPath>
</defs>
</svg>
