<svg width="45" height="45" viewBox="0 0 45 45" fill="none" xmlns="http://www.w3.org/2000/svg">
<rect width="45" height="45" rx="10" fill="#FFA53C"/>
<g clip-path="url(#clip0)">
<path d="M24.4244 8H14.5C13.5054 8 12.5516 8.39509 11.8483 9.09835C11.1451 9.80161 10.75 10.7554 10.75 11.75V34.25C10.75 35.2446 11.1451 36.1984 11.8483 36.9016C12.5516 37.6049 13.5054 38 14.5 38H29.5C30.4946 38 31.4484 37.6049 32.1516 36.9016C32.8549 36.1984 33.25 35.2446 33.25 34.25V16.8256C33.2499 16.3284 33.0523 15.8515 32.7006 15.5L25.75 8.54937C25.3985 8.19772 24.9216 8.00011 24.4244 8V8ZM24.8125 14.5625V10.8125L30.4375 16.4375H26.6875C26.1902 16.4375 25.7133 16.24 25.3617 15.8883C25.01 15.5367 24.8125 15.0598 24.8125 14.5625ZM27.625 23C27.625 24.4918 27.0324 25.9226 25.9775 26.9775C24.9226 28.0324 23.4918 28.625 22 28.625C20.5082 28.625 19.0774 28.0324 18.0225 26.9775C16.9676 25.9226 16.375 24.4918 16.375 23C16.375 21.5082 16.9676 20.0774 18.0225 19.0225C19.0774 17.9676 20.5082 17.375 22 17.375C23.4918 17.375 24.9226 17.9676 25.9775 19.0225C27.0324 20.0774 27.625 21.5082 27.625 23ZM31.375 33.7906V34.25C31.375 34.7473 31.1775 35.2242 30.8258 35.5758C30.4742 35.9275 29.9973 36.125 29.5 36.125H14.5C14.0027 36.125 13.5258 35.9275 13.1742 35.5758C12.8225 35.2242 12.625 34.7473 12.625 34.25V33.7906C12.625 33.7906 14.5 30.5 22 30.5C29.5 30.5 31.375 33.7906 31.375 33.7906Z" fill="white"/>
</g>
<defs>
<clipPath id="clip0">
<rect width="30" height="30" fill="white" transform="translate(7 8)"/>
</clipPath>
</defs>
</svg>
