<svg width="45" height="45" viewBox="0 0 45 45" fill="none" xmlns="http://www.w3.org/2000/svg">
<rect width="45" height="45" rx="10" fill="#0F44FF"/>
<path d="M33.25 31.75V14.25C33.25 13.587 32.9866 12.9511 32.5178 12.4822C32.0489 12.0134 31.413 11.75 30.75 11.75H13.25C12.587 11.75 11.9511 12.0134 11.4822 12.4822C11.0134 12.9511 10.75 13.587 10.75 14.25V31.75C10.75 32.413 11.0134 33.0489 11.4822 33.5178C11.9511 33.9866 12.587 34.25 13.25 34.25H30.75C31.413 34.25 32.0489 33.9866 32.5178 33.5178C32.9866 33.0489 33.25 32.413 33.25 31.75ZM18.25 30.5H15.75V23H18.25V30.5ZM23.25 30.5H20.75V16.75H23.25V30.5ZM28.25 30.5H25.75V20.5H28.25V30.5Z" fill="white"/>
</svg>
