<svg width="45" height="45" viewBox="0 0 45 45" fill="none" xmlns="http://www.w3.org/2000/svg">
<rect width="45" height="45" rx="10" fill="#FF3C5F"/>
<path d="M20.75 37.4875V32.9875C14.4875 32.6625 9.5 27.4625 9.5 21.125C9.5 14.575 14.825 9.25 21.375 9.25C27.925 9.25 33.25 14.575 33.25 21.125C33.25 27.3125 28.95 33.5375 22.5375 36.625L20.75 37.4875ZM21.375 11.75C16.2 11.75 12 15.95 12 21.125C12 26.3 16.2 30.5 21.375 30.5H23.25V33.375C27.8 30.5 30.75 25.775 30.75 21.125C30.75 15.95 26.55 11.75 21.375 11.75ZM20.125 26.125H22.625V28.625H20.125V26.125ZM22.625 24.25H20.125C20.125 20.1875 23.875 20.5 23.875 18C23.875 16.625 22.75 15.5 21.375 15.5C20 15.5 18.875 16.625 18.875 18H16.375C16.375 15.2375 18.6125 13 21.375 13C24.1375 13 26.375 15.2375 26.375 18C26.375 21.125 22.625 21.4375 22.625 24.25Z" fill="white"/>
</svg>
