<svg width="20" height="20" viewBox="0 0 20 20" fill="none" xmlns="http://www.w3.org/2000/svg">
<g clip-path="url(#clip0)">
<path d="M18.8962 20.0001C19.5057 20.0001 20 19.5059 20 18.8962V1.10383C20 0.494141 19.5057 0 18.8962 0H1.10383C0.494062 0 0 0.494141 0 1.10383V18.8962C0 19.5059 0.494062 20.0001 1.10383 20.0001H18.8962Z" fill="#395185"/>
<path d="M13.7997 19.9999V12.2548H16.3994L16.7886 9.23644H13.7997V7.30926C13.7997 6.43535 14.0424 5.8398 15.2956 5.8398L16.8939 5.8391V3.13949C16.6174 3.1027 15.6686 3.02051 14.5649 3.02051C12.2604 3.02051 10.6827 4.42715 10.6827 7.01043V9.23644H8.07629V12.2548H10.6827V19.9999H13.7997Z" fill="white"/>
</g>
<defs>
<clipPath id="clip0">
<rect width="20" height="20" fill="white"/>
</clipPath>
</defs>
</svg>
