<svg width="65" height="65" viewBox="0 0 65 65" fill="none" xmlns="http://www.w3.org/2000/svg">
<circle cx="32.5" cy="32.5" r="32.5" fill="#8689D8"/>
<g clip-path="url(#clip0)">
<path fill-rule="evenodd" clip-rule="evenodd" d="M23.6079 16V30.0289L33.0489 38.0455L42.2964 30.0289V22.0745L32.9907 22.0645V16H23.6079ZM38.5666 32.0651H27.2983V29.9668H38.5666V32.0651ZM34.7804 26.0207V28.0248H27.2682V26.0207H34.7804Z" fill="white"/>
<path fill-rule="evenodd" clip-rule="evenodd" d="M46.7755 25.9467L41.9564 22.1468V24.3614L46.3135 28.3416V29.6523L40.6211 35.2418L46.2853 44.058L44.2308 44.0881L39.3666 36.5946L32.9925 42.1782L26.8663 36.6227L21.7824 44.0901H19.6996L25.5873 35.2439L19.6715 29.5922L19.6996 28.2093L27.7133 20.5115L27.6832 17.7878L19.3278 25.9487C18.6536 25.9487 18 26.5319 18 27.2514V44.5851C18 45.3066 18.6536 46 19.3278 46H46.7793C47.4535 46 48 45.3066 48 44.5851V27.2514C47.9985 26.9055 47.869 26.5742 47.6396 26.3299C47.4102 26.0855 47.0996 25.9477 46.7755 25.9467Z" fill="white"/>
</g>
<defs>
<clipPath id="clip0">
<rect width="30" height="30" fill="white" transform="translate(18 20)"/>
</clipPath>
</defs>
</svg>
